<mxfile host="app.diagrams.net" modified="2023-05-12T01:20:34.287Z" agent="Mozilla/5.0 (Windows NT 10.0; Win64; x64) AppleWebKit/537.36 (KHTML, like Gecko) Chrome/113.0.0.0 Safari/537.36 Edg/113.0.1774.35" etag="a9xWsfX3AYcX94iqCE1y" version="21.1.7" type="github">
  <diagram name="第 1 页" id="9VyFLo5dkuPswK5dTQU8">
    <mxGraphModel dx="4944" dy="3493" grid="1" gridSize="10" guides="1" tooltips="1" connect="1" arrows="1" fold="1" page="1" pageScale="1" pageWidth="827" pageHeight="1169" math="0" shadow="0">
      <root>
        <mxCell id="0" />
        <mxCell id="1" parent="0" />
        <mxCell id="Bef0XKD4eRXr6pYGSOdi-11" value="" style="rounded=0;whiteSpace=wrap;html=1;" parent="1" vertex="1">
          <mxGeometry x="1380" y="2060" width="710" height="60" as="geometry" />
        </mxCell>
        <mxCell id="Bef0XKD4eRXr6pYGSOdi-10" value="" style="rounded=0;whiteSpace=wrap;html=1;" parent="1" vertex="1">
          <mxGeometry x="380" y="2060" width="710" height="60" as="geometry" />
        </mxCell>
        <mxCell id="Bef0XKD4eRXr6pYGSOdi-4" value="" style="verticalLabelPosition=bottom;html=1;verticalAlign=top;align=center;strokeWidth=1;shape=mxgraph.floorplan.wallU;fillColor=#000000;rounded=0;shadow=0;comic=0;fontFamily=Verdana;fontSize=12;rotation=-180;" parent="1" vertex="1">
          <mxGeometry x="147" y="-258" width="2215" height="2354" as="geometry" />
        </mxCell>
        <mxCell id="Bef0XKD4eRXr6pYGSOdi-6" value="" style="verticalLabelPosition=bottom;html=1;verticalAlign=top;align=center;strokeWidth=1;shape=mxgraph.floorplan.wall;fillColor=#000000;direction=south;rounded=0;shadow=0;comic=0;fontFamily=Verdana;fontSize=12;rotation=90;" parent="1" vertex="1">
          <mxGeometry x="560.5" y="-670" width="10" height="825" as="geometry" />
        </mxCell>
        <mxCell id="Bef0XKD4eRXr6pYGSOdi-7" value="" style="verticalLabelPosition=bottom;html=1;verticalAlign=top;align=center;strokeWidth=1;shape=mxgraph.floorplan.wall;fillColor=#000000;direction=south;rounded=0;shadow=0;comic=0;fontFamily=Verdana;fontSize=12;rotation=90;" parent="1" vertex="1">
          <mxGeometry x="1952.5" y="-667" width="10" height="819" as="geometry" />
        </mxCell>
        <mxCell id="Bef0XKD4eRXr6pYGSOdi-8" value="" style="verticalLabelPosition=bottom;html=1;verticalAlign=top;align=center;strokeWidth=1;shape=mxgraph.floorplan.doorDouble;rounded=0;shadow=0;comic=0;fontFamily=Verdana;fontSize=12;rotation=0;" parent="1" vertex="1">
          <mxGeometry x="973.5" y="-260.5" width="580" height="70" as="geometry" />
        </mxCell>
        <mxCell id="Bef0XKD4eRXr6pYGSOdi-9" value="&lt;font style=&quot;font-size: 48px;&quot;&gt;电控柜&lt;/font&gt;" style="rounded=0;whiteSpace=wrap;html=1;rotation=0;" parent="1" vertex="1">
          <mxGeometry x="160" y="-250" width="110" height="400" as="geometry" />
        </mxCell>
        <mxCell id="Bef0XKD4eRXr6pYGSOdi-14" value="" style="endArrow=block;startArrow=block;endFill=1;startFill=1;html=1;rounded=0;" parent="1" edge="1">
          <mxGeometry width="160" relative="1" as="geometry">
            <mxPoint x="100" y="-260" as="sourcePoint" />
            <mxPoint x="100" y="2090" as="targetPoint" />
          </mxGeometry>
        </mxCell>
        <mxCell id="Bef0XKD4eRXr6pYGSOdi-16" value="" style="endArrow=none;html=1;rounded=0;" parent="1" edge="1">
          <mxGeometry width="50" height="50" relative="1" as="geometry">
            <mxPoint x="50" y="-260.5" as="sourcePoint" />
            <mxPoint x="150" y="-260.5" as="targetPoint" />
          </mxGeometry>
        </mxCell>
        <mxCell id="Bef0XKD4eRXr6pYGSOdi-17" value="" style="endArrow=none;html=1;rounded=0;entryX=0.998;entryY=0;entryDx=0;entryDy=0;entryPerimeter=0;" parent="1" target="Bef0XKD4eRXr6pYGSOdi-4" edge="1">
          <mxGeometry width="50" height="50" relative="1" as="geometry">
            <mxPoint x="50" y="2096" as="sourcePoint" />
            <mxPoint x="130" y="1970" as="targetPoint" />
          </mxGeometry>
        </mxCell>
        <mxCell id="Bef0XKD4eRXr6pYGSOdi-18" value="" style="endArrow=classic;startArrow=classic;html=1;rounded=0;" parent="1" edge="1">
          <mxGeometry width="50" height="50" relative="1" as="geometry">
            <mxPoint x="152" y="2180" as="sourcePoint" />
            <mxPoint x="2362" y="2180" as="targetPoint" />
          </mxGeometry>
        </mxCell>
        <mxCell id="Bef0XKD4eRXr6pYGSOdi-19" value="" style="endArrow=none;html=1;rounded=0;" parent="1" edge="1">
          <mxGeometry width="50" height="50" relative="1" as="geometry">
            <mxPoint x="150" y="2250" as="sourcePoint" />
            <mxPoint x="150" y="2100" as="targetPoint" />
          </mxGeometry>
        </mxCell>
        <mxCell id="Bef0XKD4eRXr6pYGSOdi-20" value="" style="endArrow=none;html=1;rounded=0;" parent="1" edge="1">
          <mxGeometry width="50" height="50" relative="1" as="geometry">
            <mxPoint x="2362" y="2246" as="sourcePoint" />
            <mxPoint x="2362" y="2096" as="targetPoint" />
          </mxGeometry>
        </mxCell>
        <mxCell id="Bef0XKD4eRXr6pYGSOdi-21" value="&lt;font style=&quot;font-size: 48px;&quot;&gt;685&lt;/font&gt;" style="text;html=1;strokeColor=none;fillColor=none;align=center;verticalAlign=middle;whiteSpace=wrap;rounded=0;" parent="1" vertex="1">
          <mxGeometry x="1300" y="2200" width="69" height="30" as="geometry" />
        </mxCell>
        <mxCell id="Bef0XKD4eRXr6pYGSOdi-23" value="&lt;font style=&quot;font-size: 48px;&quot;&gt;地轨&lt;/font&gt;" style="rounded=0;whiteSpace=wrap;html=1;" parent="1" vertex="1">
          <mxGeometry x="510" y="190" width="250" height="1810" as="geometry" />
        </mxCell>
        <mxCell id="Bef0XKD4eRXr6pYGSOdi-24" value="" style="endArrow=none;html=1;rounded=0;exitX=0.006;exitY=0.101;exitDx=0;exitDy=0;exitPerimeter=0;" parent="1" source="Bef0XKD4eRXr6pYGSOdi-8" edge="1">
          <mxGeometry width="50" height="50" relative="1" as="geometry">
            <mxPoint x="730" y="-260" as="sourcePoint" />
            <mxPoint x="977" y="-320" as="targetPoint" />
          </mxGeometry>
        </mxCell>
        <mxCell id="Bef0XKD4eRXr6pYGSOdi-25" value="" style="endArrow=none;html=1;rounded=0;exitX=0.995;exitY=0.04;exitDx=0;exitDy=0;exitPerimeter=0;" parent="1" source="Bef0XKD4eRXr6pYGSOdi-8" edge="1">
          <mxGeometry width="50" height="50" relative="1" as="geometry">
            <mxPoint x="1550" y="-270" as="sourcePoint" />
            <mxPoint x="1550" y="-320" as="targetPoint" />
          </mxGeometry>
        </mxCell>
        <mxCell id="Bef0XKD4eRXr6pYGSOdi-26" value="" style="endArrow=classic;startArrow=classic;html=1;rounded=0;" parent="1" edge="1">
          <mxGeometry width="50" height="50" relative="1" as="geometry">
            <mxPoint x="980" y="-280" as="sourcePoint" />
            <mxPoint x="1550" y="-280" as="targetPoint" />
          </mxGeometry>
        </mxCell>
        <mxCell id="Bef0XKD4eRXr6pYGSOdi-27" value="&lt;font style=&quot;font-size: 48px;&quot;&gt;140&lt;/font&gt;" style="text;html=1;strokeColor=none;fillColor=none;align=center;verticalAlign=middle;whiteSpace=wrap;rounded=0;" parent="1" vertex="1">
          <mxGeometry x="1234" y="-320" width="60" height="30" as="geometry" />
        </mxCell>
        <mxCell id="Bef0XKD4eRXr6pYGSOdi-35" value="" style="line;strokeWidth=2;html=1;" parent="1" vertex="1">
          <mxGeometry x="440" y="186" width="70" height="10" as="geometry" />
        </mxCell>
        <mxCell id="Bef0XKD4eRXr6pYGSOdi-36" value="" style="line;strokeWidth=2;html=1;" parent="1" vertex="1">
          <mxGeometry x="440" y="1996" width="70" height="10" as="geometry" />
        </mxCell>
        <mxCell id="Bef0XKD4eRXr6pYGSOdi-37" value="" style="endArrow=classic;startArrow=classic;html=1;rounded=0;entryX=0.518;entryY=0.579;entryDx=0;entryDy=0;entryPerimeter=0;exitX=0.518;exitY=0.699;exitDx=0;exitDy=0;exitPerimeter=0;" parent="1" source="Bef0XKD4eRXr6pYGSOdi-36" target="Bef0XKD4eRXr6pYGSOdi-35" edge="1">
          <mxGeometry width="50" height="50" relative="1" as="geometry">
            <mxPoint x="477" y="1996" as="sourcePoint" />
            <mxPoint x="450" y="746" as="targetPoint" />
          </mxGeometry>
        </mxCell>
        <mxCell id="Bef0XKD4eRXr6pYGSOdi-38" value="&lt;font style=&quot;font-size: 48px;&quot;&gt;500&lt;/font&gt;" style="text;html=1;strokeColor=none;fillColor=none;align=center;verticalAlign=middle;whiteSpace=wrap;rounded=0;" parent="1" vertex="1">
          <mxGeometry x="400" y="1370" width="60" height="30" as="geometry" />
        </mxCell>
        <mxCell id="Bef0XKD4eRXr6pYGSOdi-39" value="" style="shape=crossbar;whiteSpace=wrap;html=1;rounded=1;" parent="1" vertex="1">
          <mxGeometry x="510" y="130" width="250" height="56" as="geometry" />
        </mxCell>
        <mxCell id="Bef0XKD4eRXr6pYGSOdi-40" value="&lt;span style=&quot;font-size: 48px;&quot;&gt;60&lt;/span&gt;" style="text;html=1;align=center;verticalAlign=middle;resizable=0;points=[];autosize=1;strokeColor=none;fillColor=none;" parent="1" vertex="1">
          <mxGeometry x="570.5" y="80" width="80" height="70" as="geometry" />
        </mxCell>
        <mxCell id="Bef0XKD4eRXr6pYGSOdi-41" value="&lt;font style=&quot;font-size: 48px;&quot;&gt;控制箱&lt;/font&gt;" style="rounded=0;whiteSpace=wrap;html=1;" parent="1" vertex="1">
          <mxGeometry x="170" y="186" width="220" height="770" as="geometry" />
        </mxCell>
        <mxCell id="Bef0XKD4eRXr6pYGSOdi-43" value="&lt;font style=&quot;font-size: 48px;&quot;&gt;焊机&lt;/font&gt;" style="rounded=0;whiteSpace=wrap;html=1;" parent="1" vertex="1">
          <mxGeometry x="170" y="990" width="220" height="280" as="geometry" />
        </mxCell>
        <mxCell id="Bef0XKD4eRXr6pYGSOdi-44" value="&lt;font style=&quot;font-size: 48px;&quot;&gt;焊接台&lt;/font&gt;" style="whiteSpace=wrap;html=1;aspect=fixed;" parent="1" vertex="1">
          <mxGeometry x="860" y="356" width="440" height="440" as="geometry" />
        </mxCell>
        <mxCell id="Bef0XKD4eRXr6pYGSOdi-45" value="" style="shape=crossbar;whiteSpace=wrap;html=1;rounded=1;rotation=90;" parent="1" vertex="1">
          <mxGeometry x="1122" y="551" width="440" height="60" as="geometry" />
        </mxCell>
        <mxCell id="Bef0XKD4eRXr6pYGSOdi-46" value="&lt;font style=&quot;font-size: 48px;&quot;&gt;120&lt;/font&gt;" style="text;html=1;align=center;verticalAlign=middle;resizable=0;points=[];autosize=1;strokeColor=none;fillColor=none;" parent="1" vertex="1">
          <mxGeometry x="1380" y="520" width="100" height="70" as="geometry" />
        </mxCell>
        <mxCell id="Bef0XKD4eRXr6pYGSOdi-49" value="" style="verticalLabelPosition=bottom;verticalAlign=top;html=1;shape=mxgraph.basic.rect;fillColor2=none;strokeWidth=1;size=20;indent=5;" parent="1" vertex="1">
          <mxGeometry x="880" y="990" width="213" height="60" as="geometry" />
        </mxCell>
        <mxCell id="Bef0XKD4eRXr6pYGSOdi-50" value="的" style="verticalLabelPosition=bottom;verticalAlign=top;html=1;shape=mxgraph.basic.rect;fillColor2=none;strokeWidth=1;size=30;indent=5;" parent="1" vertex="1">
          <mxGeometry x="948.25" y="1050" width="76.5" height="510" as="geometry" />
        </mxCell>
        <mxCell id="Bef0XKD4eRXr6pYGSOdi-51" value="" style="verticalLabelPosition=bottom;verticalAlign=top;html=1;shape=mxgraph.basic.rect;fillColor2=none;strokeWidth=1;size=20;indent=5;" parent="1" vertex="1">
          <mxGeometry x="880" y="1560" width="213" height="60" as="geometry" />
        </mxCell>
        <mxCell id="Bef0XKD4eRXr6pYGSOdi-53" value="&lt;font style=&quot;font-size: 48px;&quot;&gt;变位机&lt;/font&gt;" style="text;html=1;strokeColor=none;fillColor=none;align=center;verticalAlign=middle;whiteSpace=wrap;rounded=0;" parent="1" vertex="1">
          <mxGeometry x="956.5" y="1290" width="60" height="30" as="geometry" />
        </mxCell>
        <mxCell id="Bef0XKD4eRXr6pYGSOdi-55" value="" style="shape=crossbar;whiteSpace=wrap;html=1;rounded=1;direction=south;" parent="1" vertex="1">
          <mxGeometry x="1093" y="990" width="70" height="630" as="geometry" />
        </mxCell>
        <mxCell id="Bef0XKD4eRXr6pYGSOdi-56" value="&lt;span style=&quot;color: rgb(0, 0, 0); font-family: Helvetica; font-size: 48px; font-style: normal; font-variant-ligatures: normal; font-variant-caps: normal; font-weight: 400; letter-spacing: normal; orphans: 2; text-align: center; text-indent: 0px; text-transform: none; widows: 2; word-spacing: 0px; -webkit-text-stroke-width: 0px; background-color: rgb(251, 251, 251); text-decoration-thickness: initial; text-decoration-style: initial; text-decoration-color: initial; float: none; display: inline !important;&quot;&gt;180&lt;/span&gt;" style="text;whiteSpace=wrap;html=1;" parent="1" vertex="1">
          <mxGeometry x="1143" y="1345" width="100" height="45" as="geometry" />
        </mxCell>
        <mxCell id="Bef0XKD4eRXr6pYGSOdi-57" value="&lt;font style=&quot;font-size: 48px;&quot;&gt;货架&lt;/font&gt;" style="shape=ext;double=1;rounded=0;whiteSpace=wrap;html=1;" parent="1" vertex="1">
          <mxGeometry x="2220" y="-200" width="120" height="2240" as="geometry" />
        </mxCell>
        <mxCell id="Bef0XKD4eRXr6pYGSOdi-58" value="&lt;font style=&quot;font-size: 48px;&quot;&gt;门&lt;/font&gt;" style="text;html=1;align=center;verticalAlign=middle;resizable=0;points=[];autosize=1;strokeColor=none;fillColor=none;" parent="1" vertex="1">
          <mxGeometry x="1395" y="-170" width="70" height="70" as="geometry" />
        </mxCell>
        <mxCell id="Bef0XKD4eRXr6pYGSOdi-59" value="&lt;font style=&quot;font-size: 48px;&quot;&gt;窗&lt;/font&gt;" style="text;html=1;align=center;verticalAlign=middle;resizable=0;points=[];autosize=1;strokeColor=none;fillColor=none;" parent="1" vertex="1">
          <mxGeometry x="1480" y="2120" width="70" height="70" as="geometry" />
        </mxCell>
        <mxCell id="Bef0XKD4eRXr6pYGSOdi-60" value="&lt;font style=&quot;font-size: 48px;&quot;&gt;窗&lt;/font&gt;" style="text;html=1;align=center;verticalAlign=middle;resizable=0;points=[];autosize=1;strokeColor=none;fillColor=none;" parent="1" vertex="1">
          <mxGeometry x="960" y="2120" width="70" height="70" as="geometry" />
        </mxCell>
        <mxCell id="7xhSkZsvuuxZr3F3eHPy-1" value="&lt;span style=&quot;font-size: 48px;&quot;&gt;变位机&lt;/span&gt;" style="whiteSpace=wrap;html=1;aspect=fixed;" vertex="1" parent="1">
          <mxGeometry x="880" y="1720" width="310" height="310" as="geometry" />
        </mxCell>
        <mxCell id="7xhSkZsvuuxZr3F3eHPy-3" value="" style="shape=crossbar;whiteSpace=wrap;html=1;rounded=1;direction=south;" vertex="1" parent="1">
          <mxGeometry x="1210" y="1710" width="70" height="320" as="geometry" />
        </mxCell>
        <mxCell id="7xhSkZsvuuxZr3F3eHPy-4" value="&lt;span style=&quot;color: rgb(0, 0, 0); font-family: Helvetica; font-size: 48px; font-style: normal; font-variant-ligatures: normal; font-variant-caps: normal; font-weight: 400; letter-spacing: normal; orphans: 2; text-align: center; text-indent: 0px; text-transform: none; widows: 2; word-spacing: 0px; -webkit-text-stroke-width: 0px; background-color: rgb(251, 251, 251); text-decoration-thickness: initial; text-decoration-style: initial; text-decoration-color: initial; float: none; display: inline !important;&quot;&gt;120&lt;/span&gt;" style="text;whiteSpace=wrap;html=1;" vertex="1" parent="1">
          <mxGeometry x="1269" y="1840" width="110" height="80" as="geometry" />
        </mxCell>
        <mxCell id="7xhSkZsvuuxZr3F3eHPy-13" value="&lt;font style=&quot;font-size: 48px;&quot;&gt;龙门架&lt;/font&gt;" style="rounded=0;whiteSpace=wrap;html=1;" vertex="1" parent="1">
          <mxGeometry x="870" y="186" width="120" height="775" as="geometry" />
        </mxCell>
      </root>
    </mxGraphModel>
  </diagram>
</mxfile>
